<svg xmlns="http://www.w3.org/2000/svg" viewBox="0 0 512 512">
  <defs>
    <linearGradient id="bg" x1="0%" y1="0%" x2="100%" y2="100%">
      <stop offset="0%" stop-color="#fff4ec"/>
      <stop offset="55%" stop-color="#ffd6df"/>
      <stop offset="100%" stop-color="#ffe7b8"/>
    </linearGradient>
    <linearGradient id="gold" x1="0%" y1="0%" x2="100%" y2="100%">
      <stop offset="0%" stop-color="#ffdb6e"/>
      <stop offset="50%" stop-color="#f59e0b"/>
      <stop offset="100%" stop-color="#b45309"/>
    </linearGradient>
    <linearGradient id="berry" x1="0%" y1="0%" x2="100%" y2="100%">
      <stop offset="0%" stop-color="#ec4899"/>
      <stop offset="100%" stop-color="#9d174d"/>
    </linearGradient>
  </defs>
  <rect width="512" height="512" rx="124" fill="url(#bg)"/>
  <path d="M118 394c37-155 92-250 138-250 34 0 47 31 51 71 10-32 28-50 56-50 33 0 53 25 53 63 0 49-31 110-81 166h53c18 0 28 9 28 24 0 18-14 30-35 30H126c-23 0-34-10-34-26 0-11 9-22 26-28Zm87 0h57c47-56 72-107 72-151 0-18-7-28-20-28-18 0-31 24-45 76h-41c-5-51-15-76-33-76-25 0-55 61-90 179Z" fill="url(#gold)"/>
  <path d="M242 107c0-23 18-41 41-41 16 0 29 7 37 20 6-10 18-16 31-16 22 0 39 17 39 39 0 8-2 15-6 22 14 5 24 18 24 34 0 20-16 36-36 36H235c-22 0-39-18-39-40 0-17 10-31 25-37-3-5-5-11-5-17Z" fill="url(#berry)"/>
  <path d="M124 96c29-31 73-47 123-47 31 0 60 5 87 16" fill="none" stroke="#be185d" stroke-linecap="round" stroke-width="18"/>
  <circle cx="318" cy="143" r="10" fill="#fff5f7" opacity="0.9"/>
  <circle cx="344" cy="121" r="8" fill="#fff5f7" opacity="0.75"/>
</svg>
